Coordinates
version=1
nRows=17
nColumns=40
inDegrees=yes

Units are S.I. units (second, meters, Newtons, ...)
Angles are in degrees.

endheader
time	pelvis_tilt	pelvis_list	pelvis_rotation	pelvis_tx	pelvis_ty	pelvis_tz	hip_flexion_r	hip_adduction_r	hip_rotation_r	knee_angle_r	knee_angle_r_beta	ankle_angle_r	subtalar_angle_r	mtp_angle_r	hip_flexion_l	hip_adduction_l	hip_rotation_l	knee_angle_l	knee_angle_l_beta	ankle_angle_l	subtalar_angle_l	mtp_angle_l	lumbar_extension	lumbar_bending	lumbar_rotation	arm_flex_r	arm_add_r	arm_rot_r	elbow_flex_r	pro_sup_r	wrist_flex_r	wrist_dev_r	arm_flex_l	arm_add_l	arm_rot_l	elbow_flex_l	pro_sup_l	wrist_flex_l	wrist_dev_l
      0.59000000	     -0.08246834	     -2.59020409	     10.14480999	     -0.08177808	      0.92228915	     -1.44702764	     27.72463799	     -3.43031986	    -20.53629723	    -23.85518587	     -0.41635154	     -7.68549897	     -5.87222025	      2.13830442	    -16.92077954	     11.46571266	     14.65825240	    -24.13952240	     -0.42131415	     -4.41435244	     -7.34858897	    -14.83753186	     -0.21776939	      5.46266870	    -13.59749833	    -14.05973596	    -11.40999725	    -29.12947305	      9.79337123	     89.95437384	      0.00000000	      0.00000000	     14.98415715	     24.79668533	     16.11176301	     55.16898337	     89.95437384	      0.00000000	      0.00000000
      0.60000000	     -0.99509440	     -2.95626737	      9.62615319	     -0.06637301	      0.92152937	     -1.44411998	     28.95088795	     -2.66045872	    -19.36617453	    -25.71288342	     -0.44877448	     -6.86271629	     -6.25868993	      1.36886494	    -14.65006650	     12.32181839	     15.15106282	    -27.82276625	     -0.48559888	     -6.81138566	     -6.42772015	    -13.75281908	      1.19952212	      5.58877388	    -13.10582478	    -14.12019856	    -11.38629583	    -29.73920604	      9.30389245	     89.95437384	      0.00000000	      0.00000000	     13.92432344	     24.35794702	     16.24994264	     55.96369195	     89.95437384	      0.00000000	      0.00000000
      0.61000000	     -0.93602826	     -2.93441138	      9.27471557	     -0.05064496	      0.92268362	     -1.44194311	     28.68808082	     -2.17704885	    -18.46584763	    -27.00575510	     -0.47133934	     -6.02372819	     -6.99724133	      1.02735035	    -13.53692478	     12.68596498	     14.91458031	    -30.80172163	     -0.53759146	    -10.00881787	     -3.98173483	    -12.45831688	      1.43799207	      5.50360284	    -12.71520396	    -14.20900249	    -11.31486140	    -29.56549534	      9.27032557	     89.95437384	      0.00000000	      0.00000000	     13.01234516	     23.97512198	     16.18503059	     56.51792666	     89.95437384	      0.00000000	      0.00000000
      0.62000000	     -1.76503849	     -3.41109642	      8.92485137	     -0.03575732	      0.92249976	     -1.43923883	     29.24619960	     -0.95268330	    -16.80748291	    -27.80005202	     -0.48520244	     -5.69785444	     -9.92336829	      0.69371272	    -10.87437089	     13.34286810	     13.88758213	    -34.39517911	     -0.60030912	    -12.57909258	     -0.60401977	    -11.33420586	      2.73647217	      5.76798675	    -12.42165301	    -14.07398332	    -11.30466933	    -30.00368934	      8.89587248	     89.95437384	      0.00000000	      0.00000000	     11.86894387	     23.46822797	     16.27322075	     56.99691960	     89.95437384	      0.00000000	      0.00000000
      0.63000000	     -1.81499106	     -3.88036641	      8.77672134	     -0.02084297	      0.92367327	     -1.43693307	     28.68629742	      0.21436969	    -15.64352999	    -28.38791723	     -0.49546262	     -4.44943189	    -10.83920783	      0.46627573	     -8.97690522	     14.15243135	     12.95652508	    -37.73832918	     -0.65865810	    -15.23867946	      1.75234926	    -10.57880347	      3.10907224	      6.14747285	    -12.24562265	    -13.88549803	    -11.27056237	    -30.02391771	      8.85115829	     89.95437384	      0.00000000	      0.00000000	     10.85406015	     23.00879506	     16.09830647	     57.36871155	     89.95437384	      0.00000000	      0.00000000
      0.64000000	     -2.00252792	     -4.61080280	      8.72071504	     -0.00658331	      0.92461504	     -1.43470633	     28.12967996	      1.60441568	    -14.75226845	    -28.52714129	     -0.49789254	     -3.61494488	    -12.38570590	      0.66345996	     -6.58112498	     15.22570537	     11.90539654	    -41.44111075	     -0.72328383	    -16.65198054	      4.26832597	    -10.29563052	      3.64143982	      6.79361991	    -12.12435444	    -13.57792950	    -11.23403371	    -30.57666766	      8.80596047	     89.95437384	      0.00000000	      0.00000000	      9.97823678	     22.47229944	     15.79864372	     57.36062521	     89.95437384	      0.00000000	      0.00000000
      0.65000000	     -1.73529039	     -5.25981538	      8.62866711	      0.00780472	      0.92644173	     -1.43252355	     26.90863915	      2.95564233	    -13.98223448	    -28.51103647	     -0.49761146	     -2.00600308	    -12.71046972	      0.53343319	     -4.80350493	     16.33319181	     11.38824985	    -44.79632357	     -0.78184334	    -16.59486553	      7.25127123	    -10.07312552	      3.61536418	      7.39913416	    -11.90724954	    -13.13535773	    -11.19606145	    -30.65046223	      8.72007055	     89.95437384	      0.00000000	      0.00000000	      9.08330144	     22.02000493	     15.30657848	     57.37103188	     89.95437384	      0.00000000	      0.00000000
      0.66000000	     -2.22386003	     -5.93153217	      8.72627711	      0.02092709	      0.92728599	     -1.43096036	     26.55398653	      4.05956311	    -13.44653979	    -28.29242519	     -0.49379597	     -1.58561010	    -13.96983119	      1.71941590	     -1.69805189	     17.19836065	     10.42355581	    -48.61623743	     -0.84851341	    -14.95388437	     10.41405512	     -9.96422623	      4.34446765	      7.95217394	    -11.81526481	    -12.80971669	    -11.06445059	    -31.80598525	      9.03737478	     89.95437384	      0.00000000	      0.00000000	      8.37573228	     21.24604115	     15.06517502	     56.94749245	     89.95437384	      0.00000000	      0.00000000
      0.67000000	     -2.26723017	     -6.35341212	      8.82288717	      0.03417209	      0.92911321	     -1.42977189	     25.63219648	      4.83870071	    -13.16132135	    -28.08213848	     -0.49012578	     -0.63634948	    -14.05003163	      2.49217114	      0.66912473	     17.81426132	      9.78251990	    -51.78628742	     -0.90384122	    -12.63225040	     12.30826884	     -9.52573902	      4.52556911	      8.31521023	    -11.62127318	    -12.39225556	    -10.96302126	    -32.17457036	      9.29245010	     89.95437384	      0.00000000	      0.00000000	      7.76510521	     20.49359080	     14.64869535	     56.28846428	     89.95437384	      0.00000000	      0.00000000
      0.68000000	     -1.99614595	     -6.36044756	      8.79256773	      0.04701883	      0.93184413	     -1.42887581	     24.24910252	      5.24267400	    -12.77568229	    -27.74649541	     -0.48426770	      0.32139173	    -13.87971111	      2.51419906	      2.43921608	     17.80351586	      9.18981826	    -54.31701567	     -0.94801076	    -10.18489858	     13.88732218	     -9.53151520	      4.17088695	      8.30807312	    -11.21645776	    -11.77945764	    -10.85575494	    -32.06821074	      9.54717970	     89.95437384	      0.00000000	      0.00000000	      7.22202027	     19.80316897	     14.19565810	     55.52824976	     89.95437384	      0.00000000	      0.00000000
      0.69000000	     -1.98982138	     -6.31511295	      8.94939133	      0.05946938	      0.93435438	     -1.42837460	     23.11724720	      5.37707271	    -12.86428535	    -27.27915449	     -0.47611106	      0.91749024	    -13.68622042	      2.61914999	      4.66285251	     17.54386401	      8.36166591	    -56.55260052	     -0.98702908	     -8.30327697	     15.59393120	     -9.22819445	      4.11718167	      8.17749054	    -10.94859174	    -11.27257998	    -10.69953316	    -32.14272252	     10.01150905	     89.95437384	      0.00000000	      0.00000000	      6.68810660	     19.08887834	     13.68350116	     54.55898481	     89.95437384	      0.00000000	      0.00000000
      0.70000000	     -1.93880448	     -6.08377936	      9.18364317	      0.07158154	      0.93701546	     -1.42812590	     21.90336269	      5.25884034	    -13.06686335	    -26.79236854	     -0.46761505	      1.43702549	    -13.41805821	      2.66051238	      6.81313438	     16.99000136	      7.46212618	    -58.49253583	     -1.02088734	     -6.68318490	     16.97986257	     -8.81637429	      3.94322454	      7.84909652	    -10.71167760	    -10.65008635	    -10.53545032	    -32.02557758	     10.41414936	     89.95437384	      0.00000000	      0.00000000	      6.21863643	     18.40585795	     13.04821090	     53.36760687	     89.95437384	      0.00000000	      0.00000000
      0.71000000	     -1.96804196	     -5.79891388	      9.57808435	      0.08349525	      0.93965680	     -1.42832771	     20.63788046	      5.00444061	    -13.55165025	    -26.04009220	     -0.45448535	      1.93225416	    -13.06669485	      2.68914235	      9.06631021	     16.21240678	      6.42232250	    -60.09057730	     -1.04877842	     -5.31456462	     17.81755971	     -8.02404758	      3.85910236	      7.43294683	    -10.64582284	    -10.01190824	    -10.35983054	    -32.04633727	     10.96191427	     89.95437384	      0.00000000	      0.00000000	      5.67499240	     17.70474661	     12.53149908	     52.12834905	     89.95437384	      0.00000000	      0.00000000
      0.72000000	     -2.19116833	     -5.16642233	     10.08432644	      0.09494230	      0.94201540	     -1.42936605	     19.67524342	      4.05699784	    -14.67212424	    -25.72113371	     -0.44891847	      2.95945159	    -11.69216019	      3.37413088	     11.58257352	     14.68128822	      5.14034653	    -61.77751144	     -1.07822098	      0.12263642	     17.60446444	     13.10106910	      3.88130247	      6.66751941	    -10.65275809	     -9.32445139	    -10.19108551	    -32.15565955	     11.48150427	     89.95437384	      0.00000000	      0.00000000	      5.15747143	     17.02976342	     11.94597534	     50.69631277	     89.95437384	      0.00000000	      0.00000000
      0.73000000	     -2.12658897	     -4.71588152	     10.32526253	      0.10681503	      0.94482695	     -1.42954761	     18.17314079	      3.74492395	    -14.96128166	    -24.79258559	     -0.43271225	      3.43870619	    -11.38757458	      3.24835981	     13.35638221	     13.62766711	      4.46997169	    -62.45379214	     -1.09002430	      1.10547352	     17.77539447	     12.74102012	      3.63744193	      6.09259121	    -10.44186669	     -8.57477828	    -10.06481903	    -31.86145267	     11.93915946	     89.95437384	      0.00000000	      0.00000000	      4.59738189	     16.41211957	     11.33286289	     49.11561339	     89.95437384	      0.00000000	      0.00000000
      0.74000000	     -2.09806369	     -4.23211595	     10.57259387	      0.11856290	      0.94747319	     -1.42980093	     16.74484640	      3.33493096	    -15.54292013	    -23.92084949	     -0.41749758	      3.89692904	    -10.87452649	      3.09958597	     15.06392087	     12.49546308	      3.88506162	    -62.75477625	     -1.09527747	      2.07077527	     17.86667397	     12.43338967	      3.38272989	      5.50187594	    -10.20356338	     -7.81526685	     -9.95071978	    -31.47267215	     12.52816393	     89.95437384	      0.00000000	      0.00000000	      4.05887169	     15.84438696	     10.69377026	     47.39099414	     89.95437384	      0.00000000	      0.00000000
      0.75000000	     -1.80680166	     -3.53152814	     10.88586910	      0.13062826	      0.95046333	     -1.43047335	     14.93376153	      2.58927787	    -16.61194715	    -23.10896145	     -0.40332746	      4.58123401	     -9.20278181	      2.61739400	     16.23849198	     11.15774795	      3.47339014	    -62.51739144	     -1.09113432	      2.89221931	     17.92387973	     12.60299867	      2.84684582	      4.71438049	    -10.18731026	     -7.03133808	     -9.84861685	    -30.75578207	     13.24392146	     89.95437384	      0.00000000	      0.00000000	      3.42076131	     15.32280603	     10.20107203	     45.58134703	     89.95437384	      0.00000000	      0.00000000
